<svg width="927" height="846" viewBox="0 0 927 846" fill="none" xmlns="http://www.w3.org/2000/svg">
<g opacity="0.2" filter="url(#filter0_f_90_49)">
<path d="M770 468.953C770 628.061 631.129 628.754 524.56 628.754C387.939 628.754 217 641.566 217 482.458C217 323.35 337.769 204 474.389 204C611.01 204 770 309.845 770 468.953Z" fill="#448BAB"/>
</g>
<g opacity="0.2" filter="url(#filter1_f_90_49)">
<path d="M773 461.665C773 600.183 634.129 600.785 527.56 600.785C390.939 600.785 220 611.939 220 473.422C220 334.904 340.769 231 477.389 231C614.01 231 773 323.148 773 461.665Z" fill="url(#paint0_linear_90_49)"/>
</g>
<defs>
<filter id="filter0_f_90_49" x="0" y="-13" width="987" height="859" filterUnits="userSpaceOnUse" color-interpolation-filters="sRGB">
<feFlood flood-opacity="0" result="BackgroundImageFix"/>
<feBlend mode="normal" in="SourceGraphic" in2="BackgroundImageFix" result="shape"/>
<feGaussianBlur stdDeviation="108.5" result="effect1_foregroundBlur_90_49"/>
</filter>
<filter id="filter1_f_90_49" x="3" y="14" width="987" height="804" filterUnits="userSpaceOnUse" color-interpolation-filters="sRGB">
<feFlood flood-opacity="0" result="BackgroundImageFix"/>
<feBlend mode="normal" in="SourceGraphic" in2="BackgroundImageFix" result="shape"/>
<feGaussianBlur stdDeviation="108.5" result="effect1_foregroundBlur_90_49"/>
</filter>
<linearGradient id="paint0_linear_90_49" x1="220" y1="164.279" x2="1298.12" y2="711.298" gradientUnits="userSpaceOnUse">
<stop stop-color="#71D1E7"/>
<stop offset="1" stop-color="#1E739A"/>
</linearGradient>
</defs>
</svg>
